<?xml version="1.0" standalone="no"?>
<!DOCTYPE svg PUBLIC "-//W3C//DTD SVG 20010904//EN"
 "http://www.w3.org/TR/2001/REC-SVG-20010904/DTD/svg10.dtd">
<svg version="1.0" xmlns="http://www.w3.org/2000/svg"
 width="251.000000pt" height="251.000000pt" viewBox="0 0 251.000000 251.000000"
 preserveAspectRatio="xMidYMid meet">
<metadata>
Created by potrace 1.11, written by Peter Selinger 2001-2013
</metadata>
<g transform="translate(0.000000,251.000000) scale(0.100000,-0.100000)"
fill="#000000" stroke="none">
<path d="M1095 2475 c-274 -43 -501 -159 -695 -355 -259 -262 -381 -608 -347
-985 7 -71 12 -103 32 -192 13 -55 61 -175 103 -255 121 -232 333 -436 563
-542 72 -33 156 -64 192 -71 10 -3 27 -7 37 -10 33 -11 58 -15 175 -30 51 -7
194 -7 255 0 451 50 837 345 1009 769 60 150 84 280 85 451 0 80 -3 121 -19
243 -15 109 -148 416 -205 472 -3 3 -24 30 -47 60 -161 212 -435 378 -720 436
-100 20 -315 25 -418 9z"/>
</g>
</svg>
