<svg id="Layer_1" data-name="Layer 1" xmlns="http://www.w3.org/2000/svg" viewBox="0 0 214.47 175.48"><defs><style>.cls-1{fill:none;stroke:#000;stroke-miterlimit:10;}.cls-2{fill:#fff;}.cls-3{fill:#ffa403;}</style></defs><path class="cls-1" d="M20.2,133" transform="translate(-42.76 -62.26)"/><path class="cls-2" d="M255.93,168a57.51,57.51,0,0,0-17.8-30.94,55.25,55.25,0,0,0-32.42-14.64,51.7,51.7,0,0,0-5.67-.31A54.48,54.48,0,0,0,176,127.62a53.87,53.87,0,0,0-22.71,20,52.24,52.24,0,0,0-4.34,8.38V88.1a7.62,7.62,0,0,1-1.6.15,10.57,10.57,0,0,1-2.89-.41V235.38h4.49v-36A67.44,67.44,0,0,0,174,230.3h.14a53.28,53.28,0,0,0,32.59,7.18,52.24,52.24,0,0,0,22.57-7.4A57.77,57.77,0,0,0,247,213.86a58.77,58.77,0,0,0,9.12-22.05A58.06,58.06,0,0,0,255.93,168Zm-4.27,23a53.1,53.1,0,0,1-8.43,20.34,51.13,51.13,0,0,1-16.15,14.79A49.41,49.41,0,0,1,206.31,233a47.52,47.52,0,0,1-29.75-6.41,63,63,0,0,1-20.31-22.28,55.29,55.29,0,0,1-7.33-27.64,49.67,49.67,0,0,1,8.15-26.6,51.39,51.39,0,0,1,43-23.48,44.2,44.2,0,0,1,5.21.31,51.4,51.4,0,0,1,29.89,13.45,53.56,53.56,0,0,1,16.46,28.55A56,56,0,0,1,251.66,191Z" transform="translate(-42.76 -62.26)"/><path class="cls-2" d="M147.32,67.62a10.32,10.32,0,0,0-2.89,20.22,10.57,10.57,0,0,0,2.89.41,7.62,7.62,0,0,0,1.6-.15,10.3,10.3,0,0,0-1.6-20.48Zm0,16.5a6.19,6.19,0,1,1,6.18-6.18A6.2,6.2,0,0,1,147.32,84.12Z" transform="translate(-42.76 -62.26)"/><circle class="cls-3" cx="159.19" cy="118.33" r="34.92"/><path class="cls-2" d="M108.82,139.09l-18,47.21H86.05L55.08,100H42.76V95H79v5H68l24,66.67h.25L106,130.82,94.89,100H84.44V95H120.7v5H107.76l24,66.67H132L157.59,100H145.14V95h29.67v5H163.62l-33,86.33h-4.79l-16.79-47.21Z" transform="translate(-42.76 -62.26)"/><circle class="cls-2" cx="133.65" cy="34.63" r="10.21"/><path class="cls-1" d="M136.61,187.73" transform="translate(-42.76 -62.26)"/><path class="cls-2" d="M126,76.57a5.5,5.5,0,0,0,5.5-5.5,8.48,8.48,0,0,1,.71-3.42,8.75,8.75,0,0,1,1.87-2.81A9.05,9.05,0,0,1,136.88,63a8.68,8.68,0,0,1,3.42-.7v3.3a5.5,5.5,0,0,0-5.51,5.51,8.6,8.6,0,0,1-1,4.05,8.91,8.91,0,0,1-2.68,3.1,8.82,8.82,0,0,1,2.68,3.1,8.54,8.54,0,0,1,1,4.05,5.5,5.5,0,0,0,5.51,5.5v3.3a8.51,8.51,0,0,1-3.42-.7,8.57,8.57,0,0,1-4.68-4.68,8.55,8.55,0,0,1-.71-3.42,5.5,5.5,0,0,0-5.5-5.5Z" transform="translate(-42.76 -62.26)"/><path class="cls-2" d="M167.78,79.87a5.48,5.48,0,0,0-5.5,5.5,8.55,8.55,0,0,1-.71,3.42,8.57,8.57,0,0,1-4.68,4.68,8.54,8.54,0,0,1-3.42.7v-3.3a5.5,5.5,0,0,0,5.5-5.5,8.54,8.54,0,0,1,1-4.05,9,9,0,0,1,2.69-3.1,9,9,0,0,1-2.69-3.1,8.6,8.6,0,0,1-1-4.05,5.5,5.5,0,0,0-5.5-5.51v-3.3a8.72,8.72,0,0,1,3.42.7,9.05,9.05,0,0,1,2.81,1.88,8.75,8.75,0,0,1,1.87,2.81,8.48,8.48,0,0,1,.71,3.42,5.48,5.48,0,0,0,5.5,5.5Z" transform="translate(-42.76 -62.26)"/></svg>